<?xml version="1.0" standalone="no"?>
<!DOCTYPE svg PUBLIC "-//W3C//DTD SVG 20010904//EN"
 "http://www.w3.org/TR/2001/REC-SVG-20010904/DTD/svg10.dtd">
<svg version="1.0" xmlns="http://www.w3.org/2000/svg"
 width="5079.000000pt" height="4134.000000pt" viewBox="0 0 5079.000000 4134.000000"
 preserveAspectRatio="xMidYMid meet">
<metadata>
Created by potrace 1.15, written by Peter Selinger 2001-2017
</metadata>
<g transform="translate(0.000000,4134.000000) scale(0.100000,-0.100000)"
fill="#000000" stroke="none">
<path d="M16695 30149 c-495 -34 -1020 -208 -1512 -501 -731 -435 -1320 -1101
-1620 -1832 -198 -481 -278 -953 -253 -1481 24 -477 116 -894 285 -1289 419
-980 1249 -1641 2330 -1855 279 -55 397 -66 760 -66 382 0 552 16 875 82 1208
245 2395 1000 2991 1901 340 514 482 1016 449 1585 -36 605 -240 1175 -593
1657 -549 748 -1403 1262 -2386 1435 -224 39 -417 57 -685 64 l-248 6 -43 121
c-48 136 -66 169 -98 178 -27 7 -105 6 -252 -5z m1151 -644 c946 -124 1881
-707 2389 -1490 380 -585 503 -1227 365 -1900 -172 -834 -868 -1605 -1900
-2103 -472 -228 -948 -374 -1452 -446 -283 -41 -400 -49 -658 -50 -431 0 -771
60 -1125 199 -898 350 -1523 1196 -1675 2265 -72 504 -37 1003 105 1490 234
800 748 1437 1427 1764 62 30 154 68 203 85 203 68 868 143 1730 194 166 10
485 6 591 -8z"/>
<path d="M19002 28449 c-36 -14 -84 -58 -142 -129 -29 -36 -56 -69 -60 -73 -4
-4 -88 21 -186 57 -260 93 -290 100 -424 100 -133 0 -183 -15 -287 -86 -61
-42 -63 -44 -63 -87 0 -71 20 -164 43 -207 26 -45 80 -78 207 -124 117 -42
117 -42 95 -76 -34 -53 -109 -126 -240 -235 -71 -59 -145 -127 -163 -150 -70
-92 -74 -195 -12 -293 41 -64 81 -86 155 -86 99 0 152 32 370 221 101 87 211
169 227 169 5 0 67 -58 136 -129 135 -137 189 -173 284 -191 61 -12 152 2 210
31 45 23 111 103 147 179 21 44 26 70 26 130 -1 95 -21 143 -132 309 l-82 125
25 45 c13 26 53 78 88 118 79 89 91 121 82 229 -3 45 -9 89 -12 97 -5 15 -56
37 -129 56 -48 13 -131 13 -163 0z"/>
<path d="M16208 28314 c-74 -17 -119 -41 -245 -126 l-102 -69 -76 51 c-171
115 -330 154 -478 115 -72 -19 -170 -67 -224 -112 l-43 -34 0 -78 c0 -132 35
-210 150 -336 31 -33 70 -79 88 -102 l33 -42 -139 -138 c-115 -114 -145 -150
-173 -208 -30 -60 -34 -80 -34 -146 0 -66 4 -81 28 -117 50 -76 157 -127 238
-112 54 10 109 56 218 182 94 108 185 188 212 188 8 -1 46 -23 84 -50 204
-145 242 -161 390 -168 l101 -4 41 88 c51 109 63 152 63 230 0 71 -14 123 -81
296 -27 70 -49 136 -49 146 0 10 22 45 49 77 90 109 123 162 137 222 24 103
21 117 -47 194 -34 38 -67 69 -73 68 -6 0 -37 -7 -68 -15z"/>
<path d="M19104 26776 c-216 -221 -232 -616 -32 -816 182 -182 475 -147 571
69 28 65 34 173 13 264 -10 39 -45 128 -78 197 -53 107 -72 135 -137 201 -77
77 -166 131 -239 145 -31 6 -38 2 -98 -60z"/>
<path d="M17470 26235 c-135 -17 -234 -35 -507 -96 -765 -168 -1005 -258
-1188 -448 l-39 -41 19 -37 c11 -20 38 -49 59 -65 112 -81 269 -79 726 12 107
21 344 66 525 100 450 84 584 113 833 182 l112 31 0 86 c-1 170 -74 253 -247
280 -88 14 -157 13 -293 -4z"/>
<path d="M24975 30153 c-557 -27 -1164 -235 -1695 -581 -617 -403 -1093 -928
-1403 -1547 -171 -344 -285 -725 -333 -1120 -22 -187 -23 -573 0 -785 96 -908
463 -1655 1076 -2194 676 -594 1588 -871 2615 -796 1269 94 2636 809 3390
1775 326 417 529 886 586 1350 15 124 15 435 -1 575 -56 520 -220 977 -501
1400 -263 395 -593 719 -1004 985 -485 315 -1058 522 -1656 599 -178 23 -428
38 -591 34 l-147 -3 -42 120 c-48 138 -70 180 -102 189 -21 6 -65 5 -192 -1z
m1155 -656 c457 -83 811 -209 1180 -422 806 -463 1351 -1163 1514 -1944 37
-178 49 -299 49 -496 0 -541 -166 -1034 -497 -1475 -229 -306 -532 -587 -891
-827 -619 -414 -1366 -688 -2129 -783 -809 -101 -1479 13 -2041 345 -301 178
-582 441 -789 739 -517 740 -686 1770 -445 2713 197 773 638 1398 1245 1769
200 121 381 201 529 233 232 51 883 119 1525 160 206 14 648 6 750 -12z"/>
<path d="M27215 28447 c-36 -17 -105 -84 -160 -156 -31 -40 -43 -50 -60 -45
-11 3 -99 34 -195 69 -251 91 -359 109 -491 85 -60 -11 -179 -67 -223 -106
-29 -25 -29 -26 -22 -112 8 -110 39 -181 93 -215 21 -13 83 -41 138 -61 134
-49 133 -48 110 -82 -34 -52 -98 -115 -236 -230 -233 -195 -269 -284 -182
-445 33 -62 82 -89 159 -89 96 0 161 38 349 205 86 76 171 141 222 170 l31 18
129 -131 c134 -137 186 -172 282 -193 58 -12 154 2 213 32 45 23 106 97 145
176 23 48 28 71 28 133 0 92 -26 151 -138 320 l-76 114 27 49 c14 27 54 79 88
116 77 83 89 119 80 233 -4 46 -11 90 -15 96 -25 41 -237 76 -296 49z"/>
<path d="M24428 28314 c-72 -17 -123 -42 -218 -109 -133 -92 -126 -91 -200
-39 -168 117 -335 158 -484 119 -70 -18 -176 -72 -230 -117 l-38 -31 4 -97 c3
-84 8 -105 35 -161 18 -35 64 -100 104 -143 39 -43 84 -97 99 -118 l29 -39
-138 -137 c-114 -113 -144 -149 -172 -206 -76 -157 -40 -284 101 -356 52 -26
143 -27 186 -1 17 10 68 61 115 112 118 132 220 229 246 235 17 5 48 -12 125
-66 172 -122 243 -150 381 -150 77 0 77 0 97 33 46 74 83 182 88 253 6 91 -6
140 -79 327 l-58 149 47 60 c140 176 146 188 159 300 l6 57 -63 70 c-35 39
-68 71 -74 70 -6 0 -37 -7 -68 -15z"/>
<path d="M27328 26783 c-238 -245 -237 -667 2 -857 177 -141 435 -96 527 92
25 51 28 67 28 157 0 118 -20 186 -98 340 -85 165 -240 301 -367 321 -32 5
-39 1 -92 -53z"/>
<path d="M25195 26559 c-323 -47 -583 -215 -700 -453 -167 -339 -107 -742 151
-1016 133 -141 293 -219 492 -242 379 -42 799 141 1021 446 105 143 171 346
171 525 0 131 -18 211 -71 311 -117 226 -380 384 -712 429 -91 13 -265 12
-352 0z m435 -475 c55 -22 145 -75 184 -107 25 -20 30 -34 37 -92 10 -80 -2
-181 -31 -257 -94 -250 -424 -348 -610 -181 -75 67 -103 128 -108 237 -6 120
15 217 78 351 36 76 28 74 250 70 123 -2 164 -6 200 -21z"/>
<path d="M33185 30153 c-432 -26 -849 -140 -1272 -347 -629 -309 -1173 -778
-1557 -1343 -505 -743 -694 -1543 -580 -2453 124 -991 623 -1827 1394 -2337
555 -367 1203 -552 1940 -553 687 -1 1338 148 2010 460 1123 521 1972 1390
2230 2283 68 235 91 408 91 667 0 502 -101 929 -327 1380 -312 623 -837 1142
-1510 1492 -260 135 -560 248 -860 322 -312 78 -598 115 -968 125 l-248 6 -38
105 c-73 204 -70 201 -177 198 -43 -1 -100 -3 -128 -5z m1100 -649 c435 -56
925 -231 1315 -469 807 -492 1326 -1203 1464 -2005 92 -536 -19 -1146 -292
-1605 -283 -476 -699 -876 -1270 -1222 -139 -84 -492 -258 -656 -323 -311
-124 -601 -211 -916 -274 -514 -104 -1093 -120 -1505 -40 -567 109 -1034 354
-1407 739 -445 459 -718 1064 -804 1785 -21 177 -24 571 -5 740 82 735 344
1347 784 1830 311 342 770 629 1112 695 277 54 983 125 1575 158 180 10 496 6
605 -9z"/>
<path d="M35435 28446 c-45 -20 -80 -56 -195 -199 -7 -8 -82 17 -301 97 -261
95 -429 87 -603 -29 l-59 -39 7 -90 c5 -71 12 -103 34 -146 32 -64 55 -80 215
-141 59 -23 107 -45 107 -49 0 -13 -74 -102 -121 -146 -24 -22 -95 -82 -157
-134 -205 -170 -240 -265 -154 -423 33 -62 79 -87 161 -87 96 0 150 34 410
258 57 49 123 100 146 112 l43 23 128 -131 c109 -111 140 -136 198 -163 58
-27 81 -32 140 -32 142 1 226 58 297 201 71 145 44 252 -126 496 l-55 78 27
49 c14 27 54 80 88 118 77 85 90 119 81 220 -11 123 -8 118 -98 146 -87 28
-167 32 -213 11z"/>
<path d="M32661 28319 c-62 -12 -170 -67 -274 -140 l-88 -62 -75 52 c-137 96
-264 137 -395 127 -96 -7 -173 -35 -272 -100 l-79 -51 4 -101 c3 -89 7 -108
35 -165 18 -35 61 -96 95 -134 35 -39 80 -91 101 -117 l38 -47 -138 -138
c-165 -163 -203 -224 -211 -334 -4 -59 -1 -76 21 -122 22 -44 37 -59 89 -90
60 -36 89 -43 153 -38 56 5 113 54 264 228 62 71 147 143 171 143 6 0 67 -39
136 -86 151 -104 206 -126 336 -132 l97 -4 20 33 c48 77 83 182 88 260 6 88
-5 134 -86 339 -39 100 -47 129 -38 145 6 11 43 60 83 109 77 94 99 141 110
238 l7 57 -64 70 c-35 39 -68 71 -74 70 -5 -1 -30 -5 -54 -10z"/>
<path d="M35540 26773 c-105 -111 -158 -240 -167 -408 -6 -115 9 -192 58 -292
138 -284 531 -310 652 -44 32 68 31 220 -2 316 -52 152 -139 296 -231 378 -57
51 -156 104 -211 113 -33 6 -38 2 -99 -63z"/>
<path d="M33520 26126 c-690 -88 -1344 -409 -1644 -808 -103 -138 -146 -261
-146 -423 0 -180 63 -295 162 -295 94 1 178 83 290 286 90 163 123 211 200
292 266 279 612 447 1067 518 148 24 484 23 646 0 289 -42 532 -115 765 -231
246 -123 434 -276 580 -471 38 -50 86 -106 107 -123 42 -35 117 -61 174 -61
34 0 37 2 43 38 13 81 -1 162 -48 263 -102 223 -413 557 -659 708 -236 144
-512 246 -807 297 -129 22 -583 28 -730 10z"/>
<path d="M27135 22442 c-68 -25 -118 -49 -192 -92 l-62 -35 -198 22 c-206 24
-263 23 -410 -3 -80 -14 -315 -89 -377 -121 -134 -68 -257 -183 -372 -352 -5
-6 -268 146 -309 179 -70 56 -178 118 -242 139 -55 18 -87 21 -261 21 -211 0
-258 -7 -372 -55 -124 -52 -271 -159 -405 -293 l-80 -80 -125 -4 c-140 -6
-199 -23 -365 -105 -242 -121 -499 -414 -547 -623 -20 -87 -16 -425 6 -525 30
-133 92 -240 173 -296 l22 -15 -39 -175 c-21 -96 -50 -237 -65 -314 -14 -77
-28 -147 -31 -155 -4 -9 -20 23 -40 75 -42 108 -103 258 -155 379 -22 49 -39
95 -39 103 0 7 14 41 31 75 53 104 69 170 69 279 0 78 -5 115 -26 181 -53 169
-121 268 -183 268 l-28 0 -6 98 c-10 171 -60 358 -133 503 -55 110 -171 275
-247 352 -146 147 -369 309 -555 401 -159 80 -389 133 -463 107 -18 -6 -37 -7
-43 -2 -6 5 -46 4 -91 -1 -56 -6 -93 -5 -122 3 -110 30 -429 -57 -707 -192
-44 -22 -87 -39 -97 -39 -9 0 -31 18 -49 39 -38 49 -136 124 -210 161 -75 38
-147 58 -254 71 -89 11 -162 4 -461 -41 -95 -15 -193 -69 -263 -146 -81 -88
-189 -300 -175 -342 3 -7 -1 -10 -11 -6 -9 3 -16 9 -16 13 0 13 -146 129 -200
159 -30 17 -95 46 -145 65 -49 19 -143 58 -207 85 -89 39 -172 64 -350 106
-301 71 -392 80 -693 73 -322 -7 -514 -39 -820 -137 -82 -27 -187 -57 -231
-69 -98 -24 -215 -70 -434 -168 l-165 -75 -111 2 c-61 1 -151 -4 -200 -11
-159 -21 -369 -102 -540 -211 -116 -72 -304 -294 -373 -438 -31 -65 -36 -86
-39 -166 -7 -158 28 -291 111 -416 42 -62 45 -86 18 -119 l-19 -24 -11 40 c-6
22 -15 59 -21 82 -19 76 -87 113 -212 113 -172 0 -350 -129 -350 -253 0 -63
75 -182 133 -212 62 -32 245 -13 340 36 23 11 43 19 45 17 2 -3 -17 -65 -42
-139 -140 -416 -218 -818 -174 -900 8 -13 8 -30 0 -57 -11 -35 -32 -355 -30
-452 3 -143 95 -551 186 -820 107 -313 298 -604 498 -754 123 -93 363 -197
447 -195 19 1 61 -6 94 -14 149 -39 213 -42 860 -42 584 0 719 4 744 20 6 3
20 -4 31 -15 20 -20 23 -20 40 -5 9 9 108 40 218 69 l200 52 72 -27 c109 -42
203 -60 342 -66 184 -8 329 24 508 114 81 41 103 58 150 114 100 121 156 236
167 345 5 43 0 61 -30 126 -19 42 -44 85 -56 97 l-22 22 50 83 c51 84 101 202
142 337 17 57 23 101 24 196 1 68 5 126 9 130 10 10 -5 296 -16 310 -5 7 -7
17 -4 22 4 6 2 41 -4 78 -7 37 -11 90 -11 116 0 26 -6 69 -14 94 -11 35 -11
49 -3 54 8 5 4 43 -15 136 -15 70 -27 137 -27 148 0 14 27 39 87 80 48 33 94
68 102 78 20 22 34 22 57 -4 27 -30 108 -69 144 -69 17 0 30 -5 30 -13 0 -29
-42 -152 -98 -290 -105 -254 -174 -485 -207 -691 -18 -112 -19 -163 -2 -169 9
-3 9 -9 -1 -26 -10 -17 -10 -35 -3 -79 6 -31 15 -106 20 -167 26 -283 130
-498 358 -735 127 -132 241 -220 383 -294 266 -138 497 -189 870 -190 172 0
220 3 302 21 187 41 408 148 594 288 47 36 88 65 90 65 3 0 28 -19 57 -42 73
-58 197 -114 329 -147 185 -48 268 -56 568 -56 260 0 279 1 350 23 94 30 186
78 272 143 67 50 205 192 273 282 20 27 38 47 40 45 2 -2 36 -52 76 -113 93
-141 159 -205 316 -308 156 -101 200 -125 326 -171 156 -58 229 -70 397 -63
169 7 295 26 412 63 181 57 261 107 421 263 139 135 205 237 227 349 l13 63
51 -3 51 -3 5 -145 c6 -167 15 -191 93 -251 76 -57 161 -82 260 -77 89 5 143
26 237 94 l49 35 90 -54 c160 -97 322 -154 498 -178 106 -14 183 -6 293 31
217 72 751 260 772 271 12 7 100 61 193 122 180 116 272 185 371 279 l62 59 6
-38 c10 -54 48 -133 94 -195 49 -66 152 -162 200 -187 48 -24 216 -76 310 -96
72 -15 76 -15 157 10 l83 26 59 -35 c32 -19 67 -44 78 -56 30 -33 494 -263
535 -265 19 -1 81 -12 138 -24 240 -50 710 -46 827 9 11 5 70 16 130 25 277
41 570 138 743 246 16 10 44 3 170 -44 222 -84 255 -91 393 -83 131 7 205 24
287 64 69 33 161 122 188 179 10 23 21 43 24 43 3 0 52 -38 110 -84 57 -47
128 -99 156 -116 131 -79 402 -166 589 -189 177 -22 379 -11 470 25 22 9 92
29 156 45 254 62 478 182 670 357 l57 52 60 -34 c132 -74 335 -138 547 -171
145 -23 580 -32 697 -15 96 14 288 61 368 91 187 70 349 202 423 346 65 125
80 202 81 408 1 194 -11 301 -50 465 -46 194 -99 341 -190 522 -24 49 -44 91
-44 94 0 2 9 4 19 4 28 0 76 60 100 125 48 128 14 301 -84 430 -25 32 -30 45
-20 49 38 14 89 174 136 420 21 114 29 176 25 214 -4 33 -2 52 4 52 6 0 4 12
-5 30 -8 16 -15 47 -15 70 0 108 -59 297 -145 466 -169 328 -567 823 -793 984
-169 121 -443 234 -713 294 -126 28 -150 31 -165 17 -5 -5 -57 -1 -129 10 -65
11 -126 17 -135 13 -8 -4 -163 -10 -345 -14 -353 -8 -404 -13 -735 -76 -127
-25 -190 -33 -200 -26 -35 21 -193 -23 -320 -89 -162 -85 -287 -213 -408 -419
-54 -92 -120 -238 -156 -347 l-18 -53 -36 73 c-34 65 -40 73 -72 78 -19 3 -43
9 -52 15 -9 5 -93 83 -185 174 -352 346 -662 525 -1033 599 -150 30 -247 32
-603 17 -194 -9 -378 -18 -410 -21 -49 -4 -61 -1 -78 16 -19 19 -26 20 -82 10
-113 -20 -230 -65 -433 -166 l-202 -100 -27 42 c-39 63 -118 129 -183 154 -82
32 -248 33 -347 2 -198 -62 -341 -234 -419 -505 l-24 -83 -157 -61 c-137 -54
-167 -70 -230 -122 l-72 -60 -57 53 c-32 29 -88 75 -125 101 l-68 49 -7 150
c-8 176 -22 238 -81 362 -57 117 -129 191 -235 242 -71 33 -80 35 -195 38 -98
3 -129 0 -170 -15z m7270 -283 c54 10 591 11 684 1 296 -29 559 -114 715 -230
91 -67 345 -353 498 -560 208 -282 310 -513 325 -735 9 -137 -29 -419 -69
-505 -50 -110 -156 -259 -252 -355 -102 -102 -191 -159 -312 -202 l-79 -28
-295 0 c-244 0 -311 3 -385 18 -211 42 -362 107 -490 211 -103 84 -134 123
-178 224 -88 204 -191 270 -324 208 -70 -33 -78 -51 -59 -127 32 -124 121
-244 327 -443 l141 -136 216 -71 c120 -39 296 -91 392 -116 162 -42 187 -45
335 -50 255 -8 461 16 650 78 l90 29 53 -57 c111 -121 270 -499 328 -781 44
-214 41 -490 -6 -587 -55 -110 -168 -223 -283 -280 -147 -74 -252 -93 -567
-104 -232 -9 -236 -8 -320 16 -136 39 -276 89 -416 149 -60 26 -84 41 -84 54
0 10 9 62 21 116 15 73 18 118 14 169 -29 329 -148 582 -401 845 -73 76 -116
130 -128 158 -21 56 -79 148 -120 190 -33 36 -114 82 -142 82 -10 0 -53 -21
-96 -46 -57 -33 -78 -51 -78 -66 0 -44 123 -252 200 -338 267 -300 411 -583
427 -840 9 -157 -30 -268 -134 -380 -150 -162 -406 -276 -796 -355 -128 -26
-130 -26 -241 -10 -144 20 -203 35 -314 83 -168 73 -303 192 -366 325 -60 125
-85 266 -58 327 9 22 16 71 17 135 1 85 12 143 70 385 66 276 70 289 136 422
165 330 298 653 346 838 21 81 23 110 19 200 -8 165 -30 220 -189 484 -96 159
-171 318 -202 431 -9 34 -19 117 -22 190 -7 157 9 228 86 388 54 111 176 320
223 380 43 54 139 125 243 178 l91 47 100 -19 99 -20 225 45 c164 33 238 43
275 39 28 -3 55 -5 60 -4z m-16875 -89 c190 -16 468 -101 577 -176 138 -95
223 -249 223 -404 0 -30 -11 -118 -24 -196 -21 -123 -33 -162 -96 -315 l-73
-175 -144 -165 c-80 -90 -149 -165 -153 -167 -5 -2 -46 19 -92 46 -96 56 -324
162 -359 167 -13 1 -36 7 -51 13 -54 22 -402 68 -463 62 -5 0 -118 -5 -250 -9
-273 -9 -519 -40 -635 -78 -235 -77 -690 -350 -827 -497 -104 -111 -264 -312
-304 -381 -81 -140 -140 -323 -160 -497 -14 -125 4 -249 51 -362 68 -161 236
-413 311 -465 20 -14 42 -36 48 -47 5 -12 35 -34 67 -49 66 -31 241 -78 267
-71 9 2 43 -2 75 -9 39 -9 123 -13 262 -11 182 1 211 4 260 22 103 40 115 44
155 54 66 16 164 88 281 207 l111 113 6 -58 c11 -100 36 -185 63 -209 20 -19
37 -23 88 -23 59 0 66 3 106 38 l42 37 3 338 3 338 -30 35 c-36 41 -66 43
-157 15 -93 -29 -145 -68 -289 -220 -79 -83 -174 -171 -234 -217 -56 -41 -108
-82 -116 -90 -24 -24 -72 -40 -196 -63 -84 -16 -136 -21 -175 -17 -206 24
-375 90 -436 170 -51 67 -112 311 -119 483 -7 137 69 392 169 573 99 179 211
304 296 329 48 14 48 14 105 52 21 14 80 43 129 64 50 21 117 51 150 68 346
173 700 181 1145 25 63 -22 160 -55 215 -74 67 -23 127 -53 182 -89 77 -53
312 -261 362 -321 38 -47 186 -360 226 -478 19 -59 37 -129 39 -155 3 -25 10
-91 16 -146 16 -139 -2 -290 -65 -545 -13 -52 -26 -114 -30 -136 -18 -113
-188 -350 -391 -545 -130 -124 -577 -368 -879 -480 -49 -18 -97 -38 -105 -45
-56 -46 -666 -106 -1062 -104 -204 0 -236 3 -320 24 -51 13 -124 38 -162 55
-124 56 -287 169 -319 221 -28 45 -119 141 -171 179 -43 33 -64 62 -141 197
-50 88 -99 179 -109 204 -10 25 -36 81 -57 125 -65 136 -82 215 -83 405 -1
105 4 214 15 298 9 73 15 140 13 150 -8 30 113 657 171 892 13 52 44 154 69
225 158 460 382 830 691 1142 113 114 163 156 262 221 201 130 392 223 583
281 270 82 614 157 825 181 50 6 144 19 210 29 138 22 242 25 405 11z m3760
-21 c66 -13 149 -42 210 -75 25 -13 67 -28 93 -34 74 -16 155 -67 243 -155
107 -106 170 -193 179 -247 14 -89 46 -214 65 -253 10 -23 23 -85 29 -145 7
-58 36 -319 66 -580 l54 -475 54 -140 c30 -77 85 -223 121 -325 37 -102 78
-214 91 -250 99 -269 233 -716 276 -920 33 -157 30 -344 -6 -460 -14 -47 -31
-107 -36 -134 -16 -75 -52 -138 -110 -190 -86 -77 -321 -179 -444 -193 -104
-11 -520 54 -658 104 -81 29 -153 74 -162 102 -3 10 11 96 31 190 36 172 36
173 25 299 -19 227 -77 423 -188 646 -30 60 -73 138 -95 173 -22 35 -39 65
-37 67 2 1 103 17 224 35 457 67 425 60 425 90 0 32 -25 71 -46 71 -11 0 -14
15 -14 64 0 54 -4 69 -25 94 -58 69 -152 80 -420 53 -247 -26 -430 -56 -515
-84 l-65 -22 0 -52 c1 -29 -3 -53 -7 -53 -12 0 -36 -52 -39 -86 -3 -26 6 -42
60 -100 230 -251 366 -602 390 -1004 7 -117 6 -131 -20 -231 -38 -144 -85
-239 -119 -239 -6 0 -10 -7 -10 -17 0 -30 -48 -99 -88 -127 -56 -39 -193 -90
-318 -119 -154 -36 -194 -40 -243 -27 -33 9 -46 8 -57 -1 -22 -18 -201 -5
-340 26 -132 30 -337 100 -429 148 -85 44 -198 162 -257 267 -114 203 -182
532 -190 910 l-2 135 162 500 162 500 75 445 c42 245 82 481 90 524 12 60 12
82 4 93 -33 39 22 331 102 540 22 60 45 120 50 134 18 49 334 242 559 341 370
163 819 240 1100 187z m5404 -35 c160 -41 344 -158 533 -338 114 -109 115
-110 188 -256 258 -515 443 -1041 515 -1463 84 -495 24 -1023 -171 -1514 -48
-120 -70 -159 -209 -353 -170 -239 -249 -339 -330 -422 -64 -66 -67 -68 -116
-68 -94 0 -368 31 -491 55 -210 43 -360 112 -401 185 -14 24 -11 28 67 107
161 164 276 385 372 718 48 167 92 381 83 398 -14 24 12 -6 96 -111 102 -126
125 -143 172 -123 18 8 48 14 66 13 31 -1 35 3 59 55 35 76 28 129 -35 258
-83 171 -470 732 -611 886 -148 162 -262 183 -326 60 -19 -39 -21 -22 34 -286
139 -660 131 -613 131 -805 0 -198 -10 -257 -64 -402 -78 -208 -107 -258 -201
-346 -188 -176 -373 -272 -523 -272 -169 0 -445 90 -513 168 -125 142 -230
376 -264 587 -35 217 37 584 174 891 l32 71 -46 77 c-44 73 -48 76 -83 76
-165 0 -260 -143 -322 -481 -46 -258 -53 -704 -12 -879 60 -255 190 -460 401
-630 l93 -75 -6 -43 c-17 -127 -159 -298 -306 -370 -127 -61 -183 -73 -366
-79 -217 -7 -333 15 -489 94 -163 83 -275 198 -362 375 -196 396 -293 883
-293 1467 0 261 24 453 95 766 77 336 94 386 223 649 342 698 615 1068 887
1202 65 32 88 38 158 42 71 3 106 -2 265 -41 100 -25 197 -55 215 -66 203
-126 341 -504 387 -1061 12 -150 8 -286 -14 -441 -59 -422 -85 -647 -77 -679
12 -54 36 -93 82 -134 39 -36 44 -38 96 -34 186 16 299 283 369 878 12 100 14
178 9 300 -15 409 -67 721 -154 939 -12 29 -20 55 -19 56 2 1 18 10 36 19 18
10 84 68 145 131 124 125 233 202 330 234 90 29 88 29 266 30 119 1 180 -3
225 -15z m4246 -74 c249 -35 341 -55 466 -103 194 -74 375 -185 558 -339 54
-45 122 -99 150 -120 107 -75 207 -210 246 -331 11 -36 10 -43 -19 -97 -17
-32 -31 -71 -31 -86 1 -40 33 -108 64 -135 26 -22 26 -25 26 -160 0 -410 -86
-871 -208 -1113 -71 -143 -273 -251 -561 -301 -144 -25 -220 -16 -336 42 -122
62 -320 236 -477 421 -63 73 -72 90 -84 149 -25 115 -68 192 -171 303 -75 82
-79 83 -159 64 -40 -9 -83 -13 -106 -9 -57 10 -141 -20 -178 -62 -27 -30 -30
-41 -29 -91 1 -31 5 -77 9 -102 40 -219 69 -524 80 -830 6 -158 14 -264 24
-297 29 -107 77 -151 154 -140 23 3 48 -1 63 -9 40 -22 75 -17 114 17 20 18
40 39 45 48 5 10 17 146 26 304 10 158 20 287 23 287 3 0 60 -43 126 -96 101
-80 149 -110 300 -184 216 -106 322 -150 495 -202 50 -15 106 -21 240 -25 190
-5 312 8 409 47 l51 20 0 -65 c0 -97 -51 -328 -93 -417 -67 -146 -163 -264
-295 -363 -108 -81 -175 -116 -377 -198 -308 -126 -608 -216 -860 -259 -187
-32 -486 -32 -631 0 -175 38 -389 115 -548 196 -78 41 -80 42 -126 128 -27 48
-89 141 -139 207 -78 103 -98 139 -141 247 -68 170 -91 212 -149 279 -66 75
-126 193 -150 296 -133 555 -171 787 -171 1039 0 198 13 246 135 487 47 91 85
172 85 178 0 22 99 161 207 291 59 71 247 269 418 440 l310 311 170 86 c321
162 583 252 780 270 22 2 42 4 45 5 3 1 102 -12 220 -28z m1885 -2569 c21 -6
19 -12 -51 -176 -40 -93 -75 -174 -77 -180 -3 -5 -12 7 -22 28 -18 35 -18 39
-2 71 8 19 19 51 22 72 4 22 21 78 38 126 29 79 33 85 51 76 11 -6 30 -14 41
-17z"/>
<path d="M34321 21990 c-21 -18 -23 -26 -19 -88 4 -79 36 -149 86 -193 43 -38
80 -38 116 0 25 26 28 35 22 71 -9 56 -45 125 -96 183 -46 52 -71 58 -109 27z"/>
<path d="M33903 21975 c-230 -42 -419 -164 -570 -369 -41 -56 -43 -61 -43
-131 0 -71 1 -73 35 -99 l35 -27 92 53 c51 29 117 74 147 100 82 69 214 145
306 174 45 14 121 29 175 33 138 11 185 42 197 130 6 43 -28 126 -57 140 -25
13 -239 10 -317 -4z"/>
<path d="M35462 21095 c-42 -18 -78 -58 -109 -120 -14 -27 -27 -52 -29 -54 -2
-3 -17 7 -32 21 -43 39 -93 66 -157 83 -101 26 -110 23 -238 -67 -117 -83
-117 -83 -111 -118 3 -19 16 -51 28 -70 33 -50 137 -152 227 -222 l77 -59 -29
-82 c-43 -120 -81 -280 -77 -324 2 -29 10 -42 35 -59 38 -25 132 -44 220 -44
60 0 61 1 77 35 10 19 24 69 33 110 13 60 20 75 35 75 10 0 18 -6 18 -14 0
-26 50 -75 103 -99 75 -35 195 -61 242 -53 55 11 95 54 95 105 0 36 -6 45 -61
98 -34 32 -99 105 -144 162 l-83 104 23 51 c12 28 60 129 105 225 92 196 92
199 21 246 -52 35 -177 85 -210 85 -14 -1 -41 -7 -59 -15z"/>
<path d="M15586 19783 c-45 -45 -51 -65 -32 -102 21 -40 21 -41 -11 -41 -95 0
-178 -70 -252 -210 l-44 -83 12 -96 c35 -260 126 -447 246 -502 40 -19 140
-26 161 -11 18 11 34 48 34 76 0 19 -10 32 -35 48 -21 14 -45 43 -60 73 -29
58 -65 193 -65 242 0 79 62 205 134 272 16 16 26 35 26 53 0 23 4 28 18 24 70
-21 91 -19 122 12 27 27 30 37 30 89 l0 59 -67 66 -68 67 -57 0 c-51 -1 -60
-4 -92 -36z"/>
<path d="M20950 20739 c-19 -12 -52 -37 -72 -56 l-37 -36 -53 47 c-52 46 -53
46 -125 46 -85 0 -96 -9 -114 -103 l-12 -57 67 -101 67 -100 -111 -150 c-60
-82 -110 -155 -110 -163 0 -22 105 -106 133 -106 35 0 94 26 159 72 l58 41 41
-37 c89 -81 159 -111 199 -86 9 5 19 5 27 -2 16 -13 105 -2 145 18 25 13 28
20 28 65 0 44 -6 58 -45 112 -24 34 -72 99 -105 145 -33 46 -60 86 -60 90 0 4
28 32 62 63 l62 56 -12 63 c-7 41 -8 69 -2 81 28 51 6 79 -79 105 -61 18 -70
18 -111 -7z"/>
<path d="M19244 18875 c-69 -73 -104 -242 -104 -506 0 -125 4 -171 21 -240 24
-96 91 -245 151 -336 46 -71 49 -72 160 -49 74 16 128 41 128 58 0 7 -29 71
-65 143 -123 248 -164 418 -172 710 l-5 200 -32 27 c-17 15 -35 27 -40 28 -5
0 -23 -16 -42 -35z"/>
<path d="M19602 17719 c-110 -19 -153 -52 -115 -91 17 -17 19 -24 10 -48 -17
-45 11 -70 78 -70 43 0 59 6 103 38 48 35 51 40 52 80 0 29 -7 53 -22 72 -23
32 -25 32 -106 19z"/>
<path d="M23398 18997 l-36 -33 -7 -218 c-8 -244 -3 -346 26 -489 47 -232 146
-428 297 -589 65 -68 67 -70 108 -65 22 2 55 15 73 28 37 27 98 114 101 144 5
48 -1 76 -17 81 -10 3 -37 14 -60 26 -98 48 -199 264 -288 618 -33 130 -36
153 -34 274 l1 132 -43 62 c-50 73 -69 77 -121 29z"/>
<path d="M24045 17748 c-48 -24 -123 -95 -172 -162 l-36 -48 24 -44 c23 -43
24 -44 76 -44 103 0 220 63 273 147 37 58 38 96 4 140 -23 30 -30 33 -77 33
-32 -1 -67 -9 -92 -22z"/>
<path d="M31198 21184 c-107 -25 -218 -97 -218 -139 0 -13 19 -52 42 -87 23
-34 79 -135 126 -223 l84 -160 -46 -190 c-65 -270 -71 -311 -51 -341 23 -36
74 -64 115 -64 72 0 133 64 173 183 11 31 23 57 27 57 4 0 15 -19 24 -43 37
-97 101 -157 189 -177 56 -12 77 -4 151 61 42 37 47 46 43 73 -3 17 -57 137
-120 267 -63 130 -118 245 -121 257 -6 19 29 112 103 272 11 25 21 56 21 68 0
29 -65 91 -95 92 -36 0 -90 -19 -139 -51 -27 -16 -52 -27 -56 -22 -4 4 -37 47
-74 96 -75 97 -75 97 -178 71z"/>
<path d="M28874 19203 c-12 -62 56 -308 138 -503 55 -128 186 -375 237 -444
76 -102 168 -201 268 -288 130 -112 287 -228 311 -228 36 0 117 29 165 60 51
32 66 37 49 17 -12 -14 1 -92 20 -114 17 -21 151 -17 171 5 23 26 54 103 78
195 l21 82 -46 42 c-42 40 -49 43 -101 43 -55 0 -56 -1 -71 -35 -17 -42 -28
-44 -46 -8 -9 17 -27 30 -53 38 -111 33 -258 135 -340 236 -27 34 -63 74 -80
88 -133 116 -255 301 -439 668 l-65 131 -43 6 c-24 4 -58 15 -76 26 -18 11
-46 20 -62 20 -26 0 -30 -4 -36 -37z"/>
<path d="M28245 22285 c-48 -11 -67 -22 -96 -52 -60 -65 -108 -219 -95 -305 9
-61 42 -100 114 -135 49 -23 72 -28 170 -31 109 -4 113 -3 147 23 72 54 120
178 97 251 -7 23 -7 34 1 37 16 5 -1 91 -26 129 -48 72 -190 110 -312 83z"/>
<path d="M24086 16483 c-4 -4 -157 -11 -339 -14 -355 -7 -438 -16 -764 -80
-109 -21 -158 -27 -171 -20 -13 7 -42 5 -92 -5 -157 -33 -295 -107 -447 -241
-84 -75 -232 -315 -303 -490 -41 -103 -93 -288 -105 -374 l-7 -46 -67 -12
c-37 -7 -85 -23 -108 -35 l-41 -24 -12 27 c-7 14 -28 71 -47 126 -142 411
-423 740 -770 906 -160 76 -204 88 -457 125 -139 20 -261 43 -287 54 -59 25
-197 55 -324 71 -111 14 -527 18 -675 6 -52 -4 -158 -9 -235 -12 -158 -4 -267
-21 -470 -70 -255 -61 -373 -102 -442 -151 -69 -49 -158 -94 -187 -94 -15 0
-17 -5 -12 -34 5 -29 3 -36 -19 -50 -14 -10 -34 -31 -44 -48 -11 -16 -33 -38
-49 -49 -41 -24 -102 -150 -141 -293 -29 -102 -30 -116 -25 -230 11 -224 61
-433 154 -647 21 -47 65 -140 99 -207 34 -67 61 -126 61 -132 0 -6 -19 -37
-41 -70 -23 -34 -55 -93 -73 -133 -30 -69 -31 -78 -31 -202 1 -112 4 -137 23
-178 30 -66 76 -132 140 -198 l53 -57 -69 -138 c-84 -170 -123 -266 -124 -307
0 -18 -9 -58 -19 -89 -13 -41 -19 -86 -19 -156 0 -126 21 -191 103 -316 34
-51 70 -107 79 -125 11 -20 25 -31 38 -31 27 0 172 -37 205 -52 23 -10 25 -16
25 -86 0 -210 68 -481 161 -637 144 -245 347 -415 564 -475 153 -42 487 -90
625 -90 54 0 85 5 110 19 23 12 76 22 155 30 66 6 149 16 185 21 36 5 90 12
120 16 160 19 408 90 615 177 66 27 165 65 220 83 146 49 285 123 413 219
l113 85 92 -16 c86 -15 184 -14 267 2 23 5 32 -2 78 -64 84 -113 326 -323 438
-380 89 -45 253 -106 358 -132 245 -62 524 -67 669 -14 23 8 78 24 122 34 270
62 506 186 707 369 l55 50 77 -41 c152 -79 317 -130 536 -164 166 -26 658 -27
777 -1 288 62 470 144 588 265 28 28 53 52 57 52 3 0 10 -14 13 -32 11 -50 72
-185 104 -231 40 -58 110 -111 243 -185 295 -163 415 -200 673 -209 101 -4
197 -1 260 7 55 6 139 14 187 16 143 6 603 69 761 104 86 20 259 84 407 153
92 43 228 131 338 221 l83 67 87 -88 c193 -195 394 -305 673 -366 206 -46 415
-57 694 -37 536 39 945 188 1225 448 l75 69 130 5 c147 5 184 16 272 86 63 50
120 125 179 236 l44 81 0 109 c0 91 -4 117 -21 153 -11 24 -24 43 -27 43 -4 0
-13 4 -21 9 -12 8 1 27 60 93 121 133 216 254 254 322 30 54 35 70 29 103 -6
37 -3 42 38 81 23 22 86 74 138 114 196 153 429 491 515 752 14 43 33 126 42
185 14 100 14 114 -6 251 -14 95 -17 148 -11 154 14 14 12 55 -6 143 -37 181
-168 396 -378 620 l-86 91 29 69 c69 165 101 285 101 381 0 87 -23 201 -52
260 -29 57 -88 109 -133 118 -64 12 -344 -2 -425 -21 -50 -12 -75 -14 -78 -7
-12 36 -88 135 -141 185 -77 71 -209 136 -341 168 -84 21 -119 24 -300 24
-223 0 -347 -14 -600 -65 -372 -75 -938 -264 -1029 -344 -9 -7 -52 -17 -96
-20 -164 -14 -464 -101 -574 -165 -29 -18 -55 -31 -56 -29 -2 2 -30 44 -64 95
-173 259 -453 390 -1021 477 -91 14 -199 28 -240 31 -40 4 -77 8 -81 11 -12 7
-259 17 -434 16 -292 0 -455 -33 -664 -133 -68 -32 -129 -59 -135 -59 -6 0
-17 9 -23 19 -27 43 -170 69 -288 51 -265 -38 -451 -181 -557 -428 -28 -66
-32 -88 -31 -152 1 -95 29 -170 94 -256 l49 -65 -36 -71 c-19 -39 -39 -67 -43
-62 -5 5 -44 63 -89 129 -139 206 -383 500 -522 629 -173 160 -447 290 -787
372 -147 35 -183 40 -198 25 -6 -5 -57 -1 -125 10 -132 21 -134 22 -144 12z
m-4390 -283 c271 -40 468 -91 666 -173 48 -20 112 -45 142 -56 73 -25 157 -77
273 -168 72 -56 101 -73 126 -73 31 0 34 -5 96 -123 36 -67 89 -159 119 -205
67 -103 126 -230 141 -302 7 -30 49 -140 95 -245 94 -211 158 -382 177 -465 6
-30 32 -120 56 -200 l45 -145 12 -270 c10 -212 17 -279 30 -310 22 -49 16
-137 -18 -300 -13 -60 -21 -115 -19 -122 7 -18 -33 -191 -60 -258 -123 -309
-238 -532 -386 -748 -105 -154 -154 -188 -387 -272 -71 -26 -196 -71 -279
-101 -93 -33 -300 -91 -547 -153 l-397 -100 -113 15 c-138 18 -216 38 -395
105 -158 59 -257 105 -284 134 -135 144 -192 222 -256 350 -60 120 -89 205
-123 357 -40 181 -39 251 6 708 30 314 35 389 30 535 -5 177 -8 214 -19 231
-3 6 -13 45 -22 87 -15 75 -81 251 -132 351 -41 82 -170 311 -248 441 -62 103
-75 134 -95 220 -12 55 -33 129 -45 164 -13 35 -21 69 -18 77 2 7 -7 53 -21
103 -33 113 -33 125 -3 115 30 -11 93 -6 131 10 l31 13 1 -126 c2 -212 54
-383 149 -488 26 -30 46 -63 50 -85 14 -75 77 -138 138 -138 28 0 139 50 170
78 25 22 21 47 -17 111 -125 208 -196 417 -196 582 0 72 4 93 26 137 36 73
103 128 237 195 136 69 207 128 207 173 0 51 -32 71 -130 78 -74 6 -97 3 -174
-19 -126 -36 -222 -84 -284 -140 -42 -38 -64 -70 -107 -159 -30 -61 -55 -122
-57 -135 -3 -24 -6 -25 -68 -22 -36 1 -84 11 -106 21 -41 17 -42 20 -49 77 -8
70 13 135 68 211 51 68 207 217 255 241 108 55 417 117 540 108 60 -5 88 -1
155 19 182 55 242 66 397 74 197 10 314 5 486 -20z m3934 21 c25 2 182 4 350
4 239 -1 329 -5 414 -18 203 -32 350 -78 501 -155 75 -39 107 -64 190 -148
343 -346 613 -733 690 -988 53 -177 56 -261 21 -511 -26 -192 -36 -217 -146
-385 -132 -200 -290 -329 -484 -393 -87 -29 -511 -37 -674 -13 -286 42 -473
127 -631 286 -53 54 -73 83 -95 140 -61 154 -153 250 -240 250 -50 0 -140 -41
-156 -69 -8 -17 -7 -36 5 -83 31 -123 121 -244 330 -446 l136 -131 217 -72
c119 -39 296 -91 392 -116 162 -42 187 -45 335 -50 254 -8 485 20 667 83 l73
25 54 -58 c104 -113 271 -506 325 -763 37 -182 44 -310 25 -478 -12 -108 -33
-154 -109 -245 -159 -190 -388 -267 -794 -267 -79 0 -146 -4 -148 -8 -15 -39
-648 184 -648 228 0 10 9 62 20 116 18 88 20 111 10 206 -30 305 -149 548
-391 802 -71 74 -117 132 -131 163 -60 136 -152 240 -233 263 -45 13 -45 13
-125 -36 -55 -33 -80 -54 -80 -67 0 -28 125 -259 156 -287 14 -14 63 -70 109
-125 229 -278 348 -531 362 -770 10 -168 -38 -286 -163 -405 -154 -146 -403
-252 -767 -325 -129 -26 -129 -26 -245 -10 -65 9 -137 21 -162 27 -72 18 -229
90 -296 135 -128 87 -230 231 -265 371 -11 44 -11 58 0 85 47 113 67 315 39
393 -13 36 -11 44 66 359 41 172 48 190 149 395 169 344 288 649 316 805 16
90 12 181 -10 273 -26 105 -49 157 -114 257 -141 218 -240 433 -270 583 -24
116 -17 293 14 382 47 134 202 420 281 519 48 59 142 129 245 182 l92 47 94
-20 94 -19 170 32 c94 17 197 37 230 45 33 7 82 10 110 7 28 -3 70 -4 95 -2z
m4625 -64 c119 -7 255 -55 420 -150 82 -47 80 -45 73 -53 -3 -3 -65 24 -137
60 -72 36 -135 66 -141 66 -27 0 -2 -23 73 -66 207 -119 417 -276 467 -349 45
-65 104 -197 126 -280 16 -58 19 -107 19 -280 l0 -210 -51 -105 c-29 -58 -57
-123 -64 -144 -16 -48 -127 -163 -225 -231 -38 -27 -90 -67 -115 -91 -137
-129 -367 -216 -695 -263 -204 -29 -383 -39 -820 -46 -325 -5 -402 -4 -462 9
-146 30 -283 105 -331 181 -51 80 -144 265 -173 345 -42 115 -46 177 -19 270
12 41 25 119 30 173 4 53 13 103 19 111 6 7 9 20 6 28 -3 7 4 40 15 72 11 33
20 70 20 83 0 12 22 53 48 90 26 38 72 111 102 163 91 160 141 232 215 305 59
59 92 82 211 142 194 100 325 132 664 163 63 5 131 12 150 14 41 4 458 -1 575
-7z m3485 -49 c43 -12 195 -91 271 -140 57 -37 60 -39 397 -478 75 -96 186
-227 247 -290 281 -289 419 -483 487 -684 26 -78 30 -108 35 -240 15 -413 -66
-656 -292 -881 -197 -195 -470 -328 -805 -393 -145 -28 -172 -31 -192 -18 -13
7 -21 7 -28 0 -20 -20 -284 32 -382 75 -137 60 -435 332 -501 458 -40 78 -56
151 -39 186 6 12 13 51 16 87 15 188 131 392 306 537 66 55 70 60 70 100 0 37
-4 44 -31 58 -17 9 -62 24 -100 34 -140 35 -248 -2 -376 -129 -109 -107 -173
-195 -232 -315 -56 -114 -78 -193 -87 -315 -5 -71 -2 -101 20 -182 62 -242
172 -391 405 -549 148 -100 234 -141 530 -253 31 -12 36 -19 48 -70 15 -66 34
-106 97 -201 26 -38 70 -117 99 -175 l52 -105 0 -110 c-1 -123 -10 -161 -62
-248 -97 -162 -345 -326 -635 -421 -163 -53 -269 -66 -556 -66 -313 0 -453 18
-515 64 -17 13 -16 16 18 52 43 46 135 183 135 200 0 7 -22 39 -50 71 -97 113
-140 235 -140 393 0 85 -3 99 -21 119 -46 50 -141 67 -173 32 -28 -31 -56
-116 -76 -238 -42 -244 -27 -302 135 -529 22 -30 -8 -24 -55 12 -180 137 -261
402 -216 699 24 154 47 236 116 425 97 261 239 693 276 838 61 240 52 290
-117 616 -108 211 -184 388 -231 541 -28 92 -31 115 -36 278 -5 208 4 269 55
376 26 54 55 94 112 151 120 121 243 185 534 274 81 25 212 66 293 91 415 129
851 246 1004 270 86 13 126 12 190 -7z m-9717 -1452 c15 -18 34 -50 43 -69
l17 -36 -79 -84 c-60 -63 -81 -79 -86 -67 -4 8 -22 69 -42 136 -19 66 -38 128
-42 137 -5 15 4 17 79 17 84 0 85 0 110 -34z m6957 -603 c12 -32 29 -96 37
-142 14 -79 13 -89 -6 -170 -11 -47 -29 -126 -40 -176 -13 -59 -41 -133 -79
-215 -33 -69 -77 -170 -97 -225 -35 -94 -37 -105 -32 -180 16 -206 125 -504
263 -718 45 -69 45 -70 34 -121 -9 -42 -8 -62 6 -113 16 -60 16 -62 -4 -95
-28 -45 -121 -133 -203 -191 -83 -59 -265 -150 -344 -172 -33 -10 -87 -28
-120 -41 -40 -16 -145 -36 -310 -60 -236 -35 -263 -37 -480 -36 -264 2 -455
15 -638 42 -172 26 -355 68 -392 89 -46 26 -78 99 -83 190 -5 94 19 200 84
364 24 62 44 121 44 132 0 11 14 56 31 100 28 72 31 88 27 160 -8 135 -38 191
-181 342 -183 194 -276 309 -282 352 -4 20 -14 61 -23 91 -15 50 -16 68 -5
165 6 61 18 149 26 198 14 87 15 88 74 150 33 34 64 71 70 81 10 19 12 19 41
-6 35 -30 147 -72 247 -94 85 -18 358 -34 550 -33 104 1 195 10 356 35 119 18
225 31 235 28 41 -11 741 118 793 146 11 5 47 19 80 29 60 19 206 94 251 131
14 11 30 20 37 20 6 0 21 -26 33 -57z"/>
<path d="M19545 14675 c-126 -61 -135 -97 -70 -280 59 -167 140 -349 250 -562
l95 -182 -56 -133 c-51 -121 -132 -331 -148 -384 -4 -13 1 -30 14 -47 14 -17
20 -40 20 -75 0 -47 2 -51 31 -61 18 -6 54 -11 82 -11 79 0 119 40 198 194 35
69 67 126 71 126 9 0 158 -273 168 -312 16 -57 32 -77 75 -98 67 -32 114 -27
174 20 34 27 51 48 51 63 -1 34 -40 121 -108 239 -35 60 -101 185 -148 280
-101 201 -99 176 -23 397 69 199 116 358 134 455 15 78 14 84 -5 140 -11 33
-20 72 -20 88 0 38 -40 78 -78 78 -48 0 -122 -31 -156 -65 -39 -39 -67 -121
-102 -300 -14 -71 -28 -137 -31 -145 -6 -19 -160 302 -207 431 -34 93 -100
169 -148 169 -7 0 -35 -11 -63 -25z"/>
<path d="M18611 14610 c-29 -11 -65 -27 -80 -37 -14 -9 -46 -28 -71 -41 -67
-35 -90 -61 -90 -97 0 -50 30 -70 104 -70 52 0 74 6 146 42 47 23 92 48 100
55 56 46 66 114 24 147 -33 26 -63 26 -133 1z"/>
<path d="M23513 16051 c-19 -16 -23 -29 -23 -73 0 -77 26 -143 75 -194 52 -55
87 -58 129 -15 26 27 28 35 22 72 -14 89 -115 230 -164 229 -9 -1 -27 -9 -39
-19z"/>
<path d="M23087 16034 c-216 -39 -419 -171 -564 -368 -41 -56 -43 -61 -43
-132 0 -71 1 -74 34 -99 l35 -26 96 55 c54 31 119 76 147 100 130 114 310 192
475 206 142 13 186 40 200 123 11 72 -40 157 -96 157 -16 0 -33 -5 -37 -11 -4
-8 -9 -8 -17 0 -15 15 -135 12 -230 -5z"/>
<path d="M24654 15156 c-46 -21 -78 -55 -109 -116 -15 -30 -29 -57 -31 -59 -2
-3 -17 7 -32 21 -43 39 -93 66 -157 83 -100 26 -109 23 -238 -67 l-117 -83 6
-35 c3 -19 14 -49 24 -65 26 -42 161 -173 241 -235 l67 -51 -44 -128 c-43
-130 -72 -275 -61 -304 16 -41 130 -76 252 -77 56 0 62 2 77 28 9 15 24 64 34
110 14 66 21 82 36 82 10 0 18 -7 18 -17 0 -9 18 -33 40 -54 31 -30 61 -45
137 -69 108 -33 148 -37 198 -16 41 18 65 52 66 97 1 30 -10 45 -83 119 -46
47 -112 122 -146 167 l-61 81 40 84 c111 224 169 361 164 379 -9 27 -60 63
-138 99 -81 37 -141 45 -183 26z"/>
<path d="M26757 15664 c-184 -96 -484 -529 -504 -729 -9 -87 88 -513 128 -561
5 -7 25 -12 44 -12 48 0 135 -31 135 -48 0 -8 -4 -14 -9 -14 -14 0 -61 -75
-61 -98 0 -28 37 -52 108 -68 97 -23 113 -20 169 35 84 83 103 146 57 200 -39
46 -81 50 -149 13 -48 -26 -60 -29 -81 -20 l-24 11 22 24 c12 13 27 23 35 23
7 0 31 18 53 40 l41 41 -61 87 c-58 85 -71 112 -50 112 18 0 10 27 -12 44 -16
12 -19 18 -10 22 17 8 15 34 -2 34 -12 0 -14 24 -13 133 2 124 4 136 31 188
15 31 55 86 88 123 32 36 56 70 53 76 -4 6 5 24 19 41 14 17 26 38 26 48 0 37
32 110 66 149 40 47 41 55 12 99 -27 39 -47 41 -111 7z"/>
<path d="M32012 14673 c-12 -2 -38 -19 -57 -37 -31 -29 -35 -39 -35 -82 0 -94
20 -271 35 -314 9 -24 12 -47 8 -50 -5 -4 -46 -36 -93 -72 -100 -77 -177 -156
-186 -192 -16 -66 39 -136 110 -136 22 -1 52 -7 66 -15 31 -17 144 -20 191 -3
19 6 46 20 61 30 l27 19 7 -37 c10 -52 65 -109 122 -128 74 -23 112 -29 112
-17 0 6 11 11 25 11 38 0 86 24 119 58 l29 31 -26 58 c-32 73 -63 171 -77 249
l-12 61 101 100 c56 55 101 106 101 114 0 24 -60 88 -103 111 -36 18 -53 20
-127 15 l-85 -5 -25 56 c-14 33 -45 78 -75 107 -64 65 -126 85 -213 68z"/>
<path d="M30199 11678 c-28 -30 -82 -143 -77 -164 2 -9 19 -30 39 -46 34 -27
39 -29 77 -19 25 7 53 26 76 51 32 35 36 46 36 92 0 47 -4 55 -32 80 -41 35
-88 37 -119 6z"/>
<path d="M32921 12594 c-106 -53 -151 -123 -151 -236 0 -135 67 -190 251 -205
61 -5 87 -2 130 13 64 23 132 87 178 167 28 49 33 66 29 102 -3 24 -15 56 -26
72 -40 57 -202 122 -303 123 -22 0 -65 -14 -108 -36z"/>
</g>
</svg>
